<?xml version="1.0" standalone="no"?>
<!DOCTYPE svg PUBLIC "-//W3C//DTD SVG 20010904//EN"
 "http://www.w3.org/TR/2001/REC-SVG-20010904/DTD/svg10.dtd">
<svg version="1.0" xmlns="http://www.w3.org/2000/svg"
 width="1024.000000pt" height="1024.000000pt" viewBox="0 0 1024.000000 1024.000000"
 preserveAspectRatio="xMidYMid meet">

<g transform="translate(0.000000,1024.000000) scale(0.100000,-0.100000)"
fill="#000000" stroke="none">
<path d="M4855 9899 c-400 -42 -888 -260 -1275 -569 -216 -173 -507 -487 -684
-739 -336 -479 -522 -951 -577 -1466 -28 -261 18 -622 105 -829 l17 -40 -35
-35 c-54 -57 -102 -141 -126 -220 -43 -139 -15 -337 66 -478 109 -189 287
-348 521 -467 75 -38 250 -93 349 -110 204 -36 419 -4 605 90 l47 23 96 -47
c52 -26 96 -50 96 -54 0 -4 -44 -36 -98 -71 -437 -284 -836 -716 -1029 -1113
l-53 -111 -73 -28 c-262 -100 -492 -298 -604 -519 -104 -205 -95 -465 19 -586
21 -23 23 -33 23 -145 0 -114 1 -122 30 -174 16 -29 44 -64 62 -78 47 -36 126
-63 183 -63 28 0 50 -4 50 -8 0 -23 79 -97 134 -124 53 -28 71 -32 141 -32
100 -1 166 26 226 91 45 49 93 145 103 208 l7 41 42 -41 c63 -60 109 -79 204
-83 75 -4 88 -1 147 26 84 40 148 100 186 175 26 52 30 71 30 142 0 71 -4 90
-30 141 -16 32 -46 76 -66 97 l-37 38 19 82 c35 161 16 331 -53 458 l-25 46
47 94 c26 51 70 128 98 169 79 118 268 332 281 319 2 -2 -13 -54 -34 -116 -46
-133 -93 -342 -116 -513 -24 -188 -16 -432 20 -564 28 -103 74 -207 138 -313
154 -256 163 -405 36 -599 -42 -64 -44 -65 -78 -60 -19 4 -96 9 -171 12 -152
7 -244 -6 -371 -53 -206 -77 -373 -257 -418 -453 -20 -83 -15 -223 10 -302 70
-225 308 -417 670 -541 163 -55 288 -84 550 -124 147 -22 662 -26 780 -5 261
47 450 119 586 225 61 48 137 130 146 159 3 7 43 1 108 -15 175 -44 286 -58
490 -64 151 -4 225 -2 327 11 574 73 933 371 933 774 0 117 -17 190 -68 286
-98 186 -307 316 -560 346 -147 18 -323 -12 -500 -86 -138 -57 -128 -62 -124
52 8 228 -89 448 -310 707 l-38 44 20 79 c44 172 54 260 54 504 1 151 -3 248
-11 273 -11 37 -10 36 80 -49 78 -73 140 -123 310 -249 21 -15 32 -38 46 -96
49 -194 186 -364 353 -437 54 -23 57 -27 50 -51 -4 -14 -6 -58 -6 -97 2 -119
73 -230 179 -280 71 -34 170 -33 244 1 l53 25 30 -25 c32 -27 115 -55 162 -55
124 0 249 98 291 228 16 48 20 52 49 52 92 0 213 85 260 183 30 63 49 173 40
236 -34 251 -190 508 -407 672 -200 152 -444 216 -667 175 l-85 -15 -80 50
c-153 97 -429 308 -558 426 -247 227 -586 580 -569 594 4 3 50 21 102 39 358
125 635 293 849 516 186 192 271 355 311 594 16 94 22 112 64 175 219 329 47
763 -330 830 -43 8 -96 14 -116 15 -34 0 -39 4 -66 54 l-29 54 43 17 c51 19
118 89 146 152 69 156 -1 345 -175 479 -154 117 -413 223 -694 284 -54 12
-101 26 -104 32 -4 7 -10 28 -14 47 -4 20 -22 68 -40 107 l-33 72 77 7 c115
10 266 43 364 80 285 107 436 281 440 505 4 257 -163 477 -526 694 -381 227
-846 331 -1282 285z m475 -144 c427 -60 884 -291 1090 -551 76 -96 103 -165
104 -269 1 -68 -3 -89 -27 -140 -85 -182 -326 -299 -692 -335 -268 -26 -692
33 -1001 140 -182 63 -193 66 -212 54 -29 -19 -26 -52 8 -84 57 -53 359 -153
590 -195 117 -21 315 -45 375 -45 28 0 55 -4 61 -8 26 -17 111 -188 100 -200
-3 -2 -87 5 -188 17 -345 39 -642 37 -943 -5 -308 -43 -635 -142 -635 -192 0
-45 23 -46 147 -9 222 66 460 110 691 128 457 37 1091 -38 1452 -171 410 -151
599 -407 435 -587 -24 -27 -45 -46 -47 -43 -2 3 -18 34 -36 70 -40 84 -91 136
-172 174 -58 27 -75 31 -156 31 l-91 1 -62 55 c-111 101 -244 149 -354 128
-62 -11 -98 -31 -153 -83 l-45 -43 -77 29 c-49 19 -110 34 -173 40 -87 10
-105 9 -188 -11 l-92 -23 -57 61 c-71 75 -125 100 -213 101 -128 0 -213 -53
-299 -187 -39 -61 -62 -83 -136 -135 -360 -248 -691 -612 -884 -973 -29 -55
-54 -101 -56 -103 -1 -2 -20 6 -42 17 -92 47 -211 74 -332 75 -144 1 -240 -21
-368 -85 l-93 -47 -10 26 c-72 190 -106 530 -79 790 54 508 321 1095 712 1565
298 358 637 637 985 811 183 91 458 181 633 205 41 6 86 13 100 15 68 10 336
4 430 -9z m-430 -2151 c88 -41 92 -41 210 1 68 25 85 27 180 23 91 -4 117 -10
197 -42 106 -41 113 -42 236 -19 119 21 199 9 312 -48 121 -62 357 -255 438
-357 54 -69 111 -161 104 -168 -2 -3 -33 -15 -68 -28 -35 -13 -87 -35 -116
-49 l-52 -27 -6 33 c-17 78 -75 175 -153 254 -179 180 -384 201 -530 55 -45
-45 -92 -131 -92 -170 0 -32 -13 -21 -48 41 -35 61 -131 156 -187 184 -87 44
-142 55 -245 51 -86 -3 -105 -7 -164 -37 -85 -43 -147 -110 -194 -209 -36 -75
-37 -80 -37 -192 0 -103 3 -124 31 -202 76 -213 215 -369 410 -460 139 -65
310 -48 524 51 58 27 130 60 161 74 71 31 205 129 374 271 165 139 248 192
355 229 146 51 288 48 401 -9 103 -52 195 -170 219 -284 33 -157 -54 -342
-235 -501 -200 -175 -407 -224 -790 -188 -138 14 -205 3 -205 -31 0 -28 39
-50 133 -73 68 -18 114 -21 272 -22 169 0 199 3 268 23 141 40 233 81 322 143
59 41 85 54 82 42 -3 -10 -9 -33 -12 -52 -18 -87 -106 -234 -221 -365 -232
-267 -684 -512 -1144 -620 -318 -75 -753 -70 -1175 15 -176 35 -376 112 -547
211 l-58 33 -57 -32 c-134 -72 -301 -111 -428 -98 -284 28 -527 138 -737 334
-181 170 -265 357 -238 528 15 93 51 155 145 248 94 94 205 156 325 181 89 19
251 13 345 -11 94 -25 231 -97 332 -174 51 -39 95 -71 98 -71 3 0 5 8 5 18 0
19 -42 73 -112 148 l-38 40 19 57 c37 106 163 310 296 477 202 255 392 436
568 542 l82 49 7 -74 c4 -41 14 -92 22 -112 11 -25 12 -35 4 -33 -15 5 -36 86
-40 149 l-3 47 -35 -18 c-64 -34 -175 -116 -172 -129 1 -7 -2 -10 -7 -7 -13 8
-112 -74 -104 -86 3 -6 1 -8 -4 -5 -6 4 -55 -42 -110 -101 -144 -156 -186
-209 -177 -223 4 -7 3 -10 -3 -6 -31 20 -291 -385 -318 -496 -6 -23 0 -36 41
-83 71 -81 94 -116 94 -141 0 -37 -25 -28 -122 48 -106 81 -242 151 -343 175
-94 22 -269 22 -354 0 -81 -22 -160 -61 -236 -119 -68 -51 -140 -140 -129
-158 4 -8 3 -9 -5 -5 -7 5 -19 -9 -34 -41 -32 -69 -31 -232 1 -314 43 -108
179 -288 205 -272 6 3 7 1 4 -4 -17 -28 222 -196 360 -253 150 -63 252 -83
413 -84 134 -1 151 1 230 28 47 15 113 43 146 62 l62 34 53 -30 c356 -199 709
-279 1224 -280 314 0 508 33 791 136 313 112 583 270 777 453 69 66 182 208
229 291 22 38 68 157 68 174 0 3 -29 -15 -64 -40 -166 -115 -348 -166 -595
-165 -218 1 -382 37 -411 90 -30 56 32 77 194 65 209 -15 379 -10 481 16 218
54 425 221 518 417 29 62 32 76 32 168 0 88 -3 107 -27 158 -78 165 -263 258
-455 227 -151 -24 -260 -79 -417 -212 -166 -140 -237 -196 -328 -257 -47 -33
-85 -61 -83 -63 2 -1 -7 -4 -19 -4 -12 -1 -72 -25 -132 -53 -213 -98 -333
-124 -462 -97 -181 38 -365 187 -464 379 -69 132 -83 187 -83 327 0 123 0 126
37 202 20 42 55 97 77 121 22 24 37 48 33 52 -4 5 -2 5 5 1 7 -4 31 5 54 19
168 106 391 76 553 -75 35 -33 66 -56 70 -53 4 4 4 -1 0 -11 -6 -15 -4 -17 6
-11 7 5 11 4 7 -1 -3 -5 4 -25 14 -44 19 -33 20 -33 14 -7 -3 16 -2 26 3 23
12 -7 44 62 36 76 -4 6 -3 8 3 5 5 -3 31 16 58 43 28 28 73 60 107 75 52 23
70 27 137 23 112 -5 202 -50 301 -151 82 -84 121 -144 147 -224 l16 -52 57 29
c32 16 78 34 104 41 25 6 46 15 46 20 0 16 -45 85 -97 150 -81 101 -328 307
-428 357 -107 53 -217 64 -355 36 l-77 -15 -89 34 c-201 77 -299 77 -490 -3
-27 -12 -37 -10 -110 23 -99 45 -153 57 -201 47 -41 -10 -89 -43 -85 -59 1 -6
-3 -10 -9 -8 -19 4 -68 -96 -84 -171 -8 -40 -15 -101 -16 -135 0 -52 -2 -58
-10 -37 -13 33 5 174 32 246 28 75 76 135 129 162 61 32 126 25 230 -24z m332
-344 c122 -38 253 -146 302 -250 11 -25 22 -47 24 -50 6 -8 22 24 22 45 0 35
57 139 96 177 136 130 330 99 494 -79 50 -54 117 -164 134 -219 5 -17 -4 -29
-46 -61 -29 -22 -104 -89 -167 -149 -63 -60 -112 -101 -108 -90 34 90 33 183
-4 242 -41 68 -132 86 -189 38 -44 -37 -60 -75 -60 -139 0 -114 57 -187 160
-205 l35 -6 -74 -52 c-41 -29 -83 -52 -93 -52 -10 0 -28 -9 -39 -19 -26 -24
-174 -86 -254 -106 -116 -30 -292 -10 -373 41 l-23 15 33 22 c20 13 45 46 63
82 80 160 -3 369 -146 367 -60 -1 -97 -27 -125 -85 -27 -60 -31 -130 -9 -192
8 -21 12 -41 10 -43 -7 -7 -67 82 -90 133 -126 281 -31 576 205 639 77 21 147
19 222 -4z m-570 -1172 c82 -24 65 -79 -30 -98 -51 -11 -101 -32 -140 -58 -34
-23 83 -180 185 -248 269 -178 616 -273 963 -262 124 4 174 11 250 31 172 47
281 102 375 188 25 23 45 37 45 32 0 -16 -62 -69 -137 -117 -278 -179 -714
-199 -1148 -55 -189 63 -379 170 -456 257 -47 54 -99 139 -99 164 0 21 107 74
167 83 84 13 83 57 -1 75 -142 29 -300 -39 -355 -153 -21 -44 -28 -107 -12
-107 5 0 35 16 67 35 32 19 63 35 68 34 6 0 30 -39 53 -87 46 -95 116 -185
182 -234 32 -23 40 -35 34 -47 -4 -9 -8 -47 -8 -86 0 -86 24 -141 93 -210 56
-57 141 -99 243 -121 97 -21 282 -14 394 15 104 27 229 89 282 140 40 39 45
41 106 41 145 0 325 72 433 172 72 68 104 120 104 170 0 25 3 29 10 18 22 -35
-25 -125 -105 -198 -107 -98 -240 -155 -410 -174 -96 -11 -102 -13 -143 -51
-52 -47 -164 -101 -264 -129 -94 -25 -322 -36 -411 -19 -163 32 -294 136 -337
270 -21 68 -22 95 -5 156 4 15 -5 29 -40 56 -66 53 -120 123 -168 216 -23 46
-46 83 -51 83 -5 0 -37 -15 -71 -34 -75 -42 -90 -37 -81 27 13 89 101 184 200
219 59 20 161 23 218 6z m-1628 -244 c145 -13 449 -139 500 -207 18 -25 19
-28 2 -45 -14 -17 -23 -18 -64 -11 -26 5 -67 16 -92 24 -64 20 -105 22 -124 5
-72 -59 -55 -198 32 -270 58 -48 121 -64 224 -57 108 7 118 -8 11 -17 -129
-11 -233 32 -292 121 -53 80 -49 167 11 230 27 28 57 29 139 3 35 -12 83 -24
107 -27 38 -5 42 -4 42 15 0 11 -12 30 -27 42 -39 31 -214 114 -303 144 -155
52 -374 60 -458 17 -57 -29 -112 -86 -112 -116 l0 -25 53 35 c67 44 176 69
262 61 66 -7 165 -25 178 -33 5 -3 -9 -20 -31 -39 -52 -44 -73 -91 -73 -164
-1 -106 71 -219 170 -270 54 -27 154 -50 221 -50 60 0 153 21 176 41 8 6 17 9
20 6 10 -9 -39 -35 -86 -46 -25 -6 -79 -11 -121 -11 -170 0 -306 76 -366 207
-46 99 -41 188 16 263 14 19 25 39 23 43 -1 5 2 6 7 3 5 -4 12 -2 15 3 8 12
-106 31 -190 31 -89 0 -167 -21 -221 -60 -51 -37 -73 -35 -66 7 11 61 116 140
206 153 51 8 71 7 211 -6z m2149 -531 c-7 -2 -19 -2 -25 0 -7 3 -2 5 12 5 14
0 19 -2 13 -5z m71 -19 c9 -8 16 -25 15 -37 -1 -20 -2 -20 -8 3 -4 14 -18 30
-31 37 -17 9 -20 13 -8 13 9 0 24 -7 32 -16z m-379 -62 c-3 -3 -11 0 -18 7 -9
10 -8 11 6 5 10 -3 15 -9 12 -12z m370 -22 c-10 -11 -22 -20 -28 -20 -5 0 1 9
14 20 31 25 37 25 14 0z m-192 -27 c-7 -2 -21 -2 -30 0 -10 3 -4 5 12 5 17 0
24 -2 18 -5z m144 1 c-3 -3 -12 -4 -19 -1 -8 3 -5 6 6 6 11 1 17 -2 13 -5z
m-862 -318 c211 -63 377 -90 634 -105 224 -13 493 7 679 50 45 10 89 19 97 19
7 0 62 -60 121 -132 140 -172 419 -450 609 -609 140 -116 324 -252 491 -363
l71 -47 67 15 c142 33 359 15 484 -40 336 -148 611 -622 506 -873 -32 -76
-107 -131 -179 -131 -96 0 -162 88 -205 270 -61 258 -72 298 -103 349 -58 97
-184 194 -272 208 -56 9 -43 -18 28 -57 95 -52 170 -129 201 -206 14 -35 26
-81 26 -102 0 -34 -4 -39 -53 -67 -47 -27 -61 -30 -137 -30 -112 1 -160 24
-261 125 -76 76 -99 114 -167 273 -26 59 -52 64 -52 9 0 -96 70 -247 162 -346
129 -142 290 -196 428 -145 93 34 90 36 111 -65 24 -117 66 -203 129 -259 l50
-45 -18 -47 c-52 -142 -224 -190 -319 -88 -44 46 -63 116 -70 256 -7 130 -16
142 -46 61 -28 -76 -37 -184 -21 -252 13 -54 12 -58 -7 -74 -30 -25 -118 -24
-169 2 -105 53 -142 184 -87 304 15 33 24 63 20 66 -5 4 -40 19 -80 34 -201
76 -322 214 -375 429 l-21 88 -66 34 c-120 64 -291 203 -409 336 l-69 76 -21
109 c-36 187 -120 438 -214 644 -45 97 -54 105 -108 89 -23 -7 -44 -18 -47
-25 -2 -6 11 -43 30 -80 57 -114 156 -367 191 -492 63 -217 99 -474 94 -667
l-3 -120 -95 -28 c-160 -47 -338 -85 -480 -103 -246 -31 -599 -5 -859 62 -157
41 -392 139 -494 207 l-49 32 6 53 c8 71 77 336 118 451 l33 95 107 80 107 81
-24 40 c-12 22 -32 41 -43 43 -27 4 -178 -100 -312 -215 -182 -157 -386 -416
-475 -604 -53 -112 -54 -133 -11 -204 62 -106 70 -195 34 -413 -19 -116 -20
-135 -7 -142 97 -55 138 -118 139 -210 0 -45 -6 -66 -32 -110 -46 -76 -108
-113 -197 -118 -59 -3 -72 0 -118 27 -36 21 -61 46 -80 78 -25 43 -28 57 -26
128 1 44 11 118 22 165 35 144 25 177 -27 92 -65 -106 -111 -250 -156 -485
-27 -141 -92 -217 -192 -225 -72 -6 -132 17 -182 72 -55 59 -66 100 -58 209 9
129 69 264 192 427 29 38 47 70 41 70 -40 0 -218 -203 -273 -312 -32 -64 -64
-187 -64 -250 l0 -48 -41 0 c-75 0 -139 88 -139 193 0 114 61 294 154 453 31
52 56 97 56 100 0 2 -6 4 -13 4 -19 0 -125 -129 -182 -222 -27 -45 -54 -81
-60 -81 -21 1 -48 79 -53 155 -5 87 8 155 48 245 96 213 299 392 559 494 l96
37 70 139 c223 438 573 819 1025 1115 74 49 142 87 150 84 8 -2 69 -20 135
-40z m-98 -1675 c496 -196 1045 -234 1541 -105 88 23 149 41 193 59 14 5 14
-3 7 -67 -11 -93 -42 -223 -74 -312 -28 -79 -69 -139 -146 -212 -179 -171
-371 -239 -653 -232 l-120 3 -55 102 c-74 136 -102 172 -127 157 -32 -20 -28
-74 15 -176 51 -120 69 -176 87 -272 43 -224 -7 -431 -139 -573 -77 -83 -143
-125 -259 -163 -85 -29 -98 -36 -95 -54 2 -13 16 -25 42 -35 73 -28 211 20
338 117 65 49 71 51 157 61 254 28 532 -62 677 -221 117 -129 137 -335 47
-512 -54 -107 -188 -217 -336 -276 -206 -82 -543 -123 -832 -100 -734 56
-1229 277 -1335 596 -63 187 -2 390 155 517 129 104 275 152 467 152 70 0 129
-3 133 -6 3 -4 -21 -35 -54 -70 -33 -35 -61 -67 -61 -71 0 -4 11 -10 25 -14
60 -15 198 72 289 182 106 128 156 257 156 401 0 126 -34 225 -127 370 -128
201 -182 424 -170 710 3 73 8 137 12 142 4 7 32 -3 75 -24 38 -19 113 -52 167
-74z m1828 -708 c73 -102 140 -239 165 -337 24 -96 26 -224 4 -309 -20 -79
-80 -197 -138 -271 -25 -33 -46 -63 -46 -68 0 -4 10 -9 23 -9 90 -5 170 56
233 176 25 46 33 53 118 92 177 82 290 112 451 120 138 6 229 -11 343 -68 302
-148 375 -506 158 -771 -246 -301 -860 -422 -1451 -286 -49 11 -91 22 -93 23
-2 2 4 30 12 63 32 122 13 290 -45 407 -52 104 -165 201 -323 276 -59 28 -74
39 -55 39 79 1 170 61 215 142 27 49 29 61 28 148 -1 117 -22 179 -93 267
l-49 61 42 6 c142 22 321 168 402 328 13 27 29 48 34 48 5 0 34 -35 65 -77z
m-781 -299 c66 -10 186 -122 229 -213 67 -142 17 -300 -84 -271 -50 15 -147
12 -213 -5 -31 -8 -103 -35 -159 -59 -56 -24 -103 -42 -105 -41 -2 2 8 26 22
53 74 146 95 367 50 530 l-7 23 119 -6 c66 -3 132 -8 148 -11z"/>
<path d="M4145 4867 c-187 -107 -422 -294 -615 -487 -208 -209 -366 -427 -495
-683 l-70 -139 -98 -38 c-116 -45 -240 -116 -231 -132 4 -7 2 -8 -5 -4 -18 11
-115 -68 -189 -154 -146 -171 -206 -350 -168 -501 21 -82 31 -90 53 -50 71
128 190 271 224 271 29 0 23 -24 -26 -105 -136 -224 -194 -458 -140 -565 21
-40 59 -70 99 -77 l36 -6 0 55 c0 121 59 262 164 393 60 74 167 175 186 175
19 0 17 -32 -4 -57 -49 -59 -130 -188 -167 -268 -116 -247 -43 -459 157 -460
51 0 66 4 98 29 67 51 82 87 116 273 31 172 105 367 166 437 21 23 28 26 35
15 14 -22 10 -78 -11 -167 -25 -105 -26 -204 -1 -257 23 -50 43 -68 106 -96
83 -37 194 -8 249 64 59 77 70 151 35 224 -23 48 -81 99 -100 87 -7 -4 -9 -3
-5 4 3 6 -2 17 -13 24 -19 13 -18 16 6 158 35 212 25 301 -47 419 l-33 53 18
52 c61 172 240 432 424 614 153 151 389 320 427 305 8 -3 26 -25 41 -50 31
-53 37 -44 -100 -148 -87 -67 -93 -74 -115 -135 -33 -93 -98 -330 -116 -429
-19 -101 -19 -94 -1 -88 8 4 17 1 21 -5 5 -7 2 -8 -7 -4 -8 4 -3 -2 11 -14 62
-55 328 -167 498 -210 284 -72 653 -95 907 -56 133 21 332 67 438 102 l77 26
0 101 c0 355 -107 779 -294 1167 -41 85 -39 91 37 112 43 11 49 11 67 -8 54
-54 207 -470 259 -708 31 -135 32 -140 82 -197 112 -130 336 -309 451 -361 27
-13 39 -25 43 -45 17 -83 40 -155 67 -212 33 -70 114 -165 131 -154 6 3 7 1 3
-5 -13 -22 108 -94 216 -127 31 -10 59 -24 62 -30 2 -7 -9 -38 -25 -70 -52
-104 -32 -211 54 -279 34 -27 47 -31 102 -31 35 0 69 5 75 11 7 7 7 31 -2 83
-10 61 -10 84 4 149 22 107 42 152 67 152 15 0 21 -7 22 -22 1 -13 3 -60 5
-106 8 -208 59 -292 178 -292 90 0 157 48 185 133 12 36 12 39 -15 60 -16 12
-32 21 -37 19 -5 -1 -6 2 -3 6 3 5 -3 17 -13 26 -36 33 -80 152 -107 292 l-4
22 -62 -25 c-53 -22 -73 -25 -142 -21 -115 6 -196 47 -296 147 -101 103 -159
213 -179 342 -10 62 -1 90 28 82 20 -5 30 -22 89 -153 34 -76 105 -173 156
-213 48 -38 131 -75 184 -83 53 -8 125 9 176 42 37 25 38 27 32 67 -4 22 -20
68 -36 102 -32 67 -93 124 -192 178 -80 44 -90 77 -23 77 90 0 254 -128 308
-240 15 -30 43 -127 63 -215 54 -236 84 -305 153 -352 76 -51 184 -4 232 102
31 68 26 190 -14 305 -49 146 -115 247 -237 370 -128 128 -211 179 -356 216
-86 22 -114 25 -214 21 -63 -3 -138 -11 -167 -19 -41 -12 -56 -12 -75 -2 -12
7 -27 10 -32 7 -5 -4 -6 0 -1 7 6 10 4 12 -9 7 -10 -4 -15 -3 -11 3 3 5 -19
26 -50 46 -356 227 -824 644 -1057 941 -28 35 -55 60 -60 56 -7 -4 -8 -1 -3 6
10 17 -33 61 -60 61 -12 0 -64 -9 -116 -20 -408 -85 -913 -55 -1349 80 -80 25
-76 25 -125 -3z"/>
</g>
</svg>
